<?xml version="1.0" encoding="UTF-8" standalone="no"?>
<!-- Created with Inkscape (http://www.inkscape.org/) -->

<svg
   width="1920"
   height="1080"
   viewBox="0 0 1920 1080"
   version="1.1"
   id="svg5"
   inkscape:version="1.1.1 (3bf5ae0d25, 2021-09-20)"
   sodipodi:docname="Meow Mauw Logo.svg"
   inkscape:export-filename="D:\Work 2021\Semester 1\Interactive Product\Sarah Stuff\Meow Mauw Logo.png"
   inkscape:export-xdpi="96"
   inkscape:export-ydpi="96"
   xmlns:inkscape="http://www.inkscape.org/namespaces/inkscape"
   xmlns:sodipodi="http://sodipodi.sourceforge.net/DTD/sodipodi-0.dtd"
   xmlns="http://www.w3.org/2000/svg"
   xmlns:svg="http://www.w3.org/2000/svg">
  <sodipodi:namedview
     id="namedview7"
     pagecolor="#ffffff"
     bordercolor="#666666"
     borderopacity="1.0"
     inkscape:pageshadow="2"
     inkscape:pageopacity="0.0"
     inkscape:pagecheckerboard="0"
     inkscape:document-units="px"
     showgrid="false"
     inkscape:zoom="0.788866"
     inkscape:cx="908.26579"
     inkscape:cy="473.46444"
     inkscape:window-width="1920"
     inkscape:window-height="1009"
     inkscape:window-x="-8"
     inkscape:window-y="-8"
     inkscape:window-maximized="1"
     inkscape:current-layer="layer1" />
  <defs
     id="defs2">
    <rect
       x="460.72829"
       y="277.87115"
       width="977.03081"
       height="487.61905"
       id="rect2475" />
  </defs>
  <g
     inkscape:label="Layer 1"
     inkscape:groupmode="layer"
     id="layer1">
    <text
       xml:space="preserve"
       id="text2473"
       style="font-style:normal;font-variant:normal;font-weight:normal;font-stretch:normal;font-size:40px;line-height:1.25;font-family:'AdLib WGL4 BT';-inkscape-font-specification:'AdLib WGL4 BT';white-space:pre;shape-inside:url(#rect2475);fill:#000000;fill-opacity:1;stroke:none;image-rendering:auto"
       transform="matrix(5.0869263,0,0,13.299018,-2039.7413,-3448.8185)"><tspan
         x="460.72852"
         y="313.26172"
         id="tspan22767">MEOW MAUW</tspan></text>
    <ellipse
       style="fill:#000000"
       id="path14999"
       cx="844.22534"
       cy="270.53714"
       rx="38.543419"
       ry="29.579832" />
    <ellipse
       style="fill:#000000"
       id="path14999-9"
       cx="968.4151"
       cy="270.4335"
       rx="38.543419"
       ry="29.579832" />
    <path
       style="fill:#000000"
       id="path15044"
       d="m 779.88609,203.14537 c -5.13149,-12.32061 -8.84855,-25.18119 -11.9945,-38.13451 -2.40821,-8.95129 -3.80561,-18.12843 -5.80982,-27.16644 -1.27554,-4.99134 -1.93018,-10.09425 -2.8963,-15.14635 -0.1183,-2.09013 -0.88936,-4.00428 -1.51591,-5.9629 -0.0959,-0.29973 -0.39072,-0.65582 -0.21765,-0.91864 0.12938,-0.19647 0.8574,0.11132 0.66253,0.24308 -3.94477,2.66705 -8.09694,5.01366 -12.14541,7.5205 8.08214,5.90091 15.5095,12.66376 23.0361,19.24668 10.66332,9.29427 22.06115,17.68177 33.0145,26.61412 4.71003,3.79729 9.14576,7.86275 13.33672,12.21983 2.11475,2.75136 4.51487,5.25909 6.5667,8.05679 0,0 12.8672,-7.61316 12.8672,-7.61316 v 0 c -2.08045,-2.86528 -4.51955,-5.42076 -6.68072,-8.22531 -4.25487,-4.41785 -8.79614,-8.47934 -13.63602,-12.25525 -11.06156,-8.79583 -22.51151,-17.10522 -33.11261,-26.47745 -7.59275,-6.72194 -15.17127,-13.4646 -22.93622,-19.98427 -18.30664,8.77521 -14.44354,2.78637 -12.4121,14.56299 0.9583,5.06014 1.63735,10.17148 2.99605,15.14947 2.063,9.01723 3.5442,18.17117 6.00385,27.0989 3.30119,12.97913 7.15762,25.82938 11.86459,38.37266 0,0 13.00902,-7.20074 13.00902,-7.20074 z" />
    <path
       style="fill:#000000;stroke-width:1.79272"
       d=""
       id="path15089" />
    <path
       style="fill:#000000"
       id="path17067"
       d="m 717.09391,333.02384 c -7.51023,-3.37217 -14.01361,-8.56917 -20.40284,-13.67338 -7.1299,-5.64436 -13.68947,-11.9425 -19.80427,-18.66055 -3.87437,-4.37355 -7.13758,-9.23802 -9.89368,-14.37939 -1.98051,-4.02861 -3.62957,-8.21881 -4.67864,-12.58576 -0.75597,-3.39332 -1.12926,-6.83367 -1.32065,-10.29897 -0.27712,-5.15937 0.1009,-10.32192 0.65655,-15.45006 0.66484,-5.33438 1.311,-10.66039 1.58206,-16.03057 0.19429,-4.92932 -1.42586,-9.49506 -3.41625,-13.91603 -1.85569,-3.87396 -4.08346,-7.57425 -6.75402,-10.94348 -1.65277,-2.08518 -2.57716,-3.00975 -4.38395,-4.9634 -4.96655,-5.15881 -10.72182,-9.40121 -16.52581,-13.54876 -3.65799,-2.66462 -7.39339,-5.21573 -11.30563,-7.49305 -2.07254,-1.30172 -4.36693,-2.11538 -6.63412,-2.99093 -1.24273,-0.44076 -2.48943,-0.83771 -3.73421,-1.2737 -0.8036,-0.22966 -0.39834,-0.12823 -1.2158,-0.30427 0,0 -24.47209,17.33271 -24.47209,17.33271 v 0 c 0.68125,0.007 0.34464,-0.002 1.00986,0.0252 1.29075,0.13969 2.41324,0.79641 3.70802,0.93984 2.26341,0.6968 4.54891,1.31605 6.63675,2.47008 4.12468,1.88245 7.9687,4.32737 11.79958,6.73674 1.83988,1.22959 4.05104,2.67309 5.81899,3.99617 3.66615,2.74362 7.01752,5.88016 10.3019,9.0612 4.20338,4.54263 8.17733,9.31914 10.42565,15.17489 1.65349,4.10689 2.86226,8.3854 2.60174,12.86187 -0.22492,5.22924 -0.60738,10.45401 -1.23918,15.65083 -0.61476,5.3705 -1.24286,10.77525 -1.00592,16.19026 0.24754,3.64757 0.66905,7.28591 1.64718,10.82032 1.39894,4.4753 3.10174,8.84943 5.31284,12.99351 2.94443,5.34548 6.42175,10.38017 10.64955,14.80411 6.49718,6.59872 13.41355,12.76249 20.58882,18.61724 6.28733,5.1365 12.64115,10.19066 19.0778,15.13914 0,0 24.96977,-16.30179 24.96977,-16.30179 z" />
    <ellipse
       style="fill:#000000;stroke-width:1.09297"
       id="path17093"
       ry="15.593183"
       rx="25.390459"
       cy="-65.716232"
       cx="-607.30536"
       inkscape:transform-center-x="-7.6516942"
       inkscape:transform-center-y="6.0909307"
       transform="matrix(-0.97922368,-0.20278311,-0.12252984,-0.99246483,0,0)" />
    <path
       style="fill:#000000"
       id="path17385"
       d="m 1003.9421,206.50672 c 5.1315,-12.32061 8.8486,-25.18119 11.9945,-38.13451 2.4082,-8.95129 3.8056,-18.12843 5.8098,-27.16644 1.2756,-4.99134 1.9302,-10.09425 2.8963,-15.14635 0.1183,-2.09013 0.8894,-4.00428 1.516,-5.9629 0.096,-0.29973 0.3907,-0.65582 0.2176,-0.91864 -0.1294,-0.19647 -0.8574,0.11132 -0.6625,0.24308 3.9447,2.66705 8.0969,5.01366 12.1454,7.5205 -8.0822,5.90091 -15.5095,12.66376 -23.0361,19.24668 -10.6633,9.29427 -22.06112,17.68177 -33.01447,26.61412 -4.71003,3.79729 -9.14576,7.86275 -13.33672,12.21983 -2.11475,2.75136 -4.51487,5.25909 -6.5667,8.05679 0,0 -12.8672,-7.61316 -12.8672,-7.61316 v 0 c 2.08045,-2.86528 4.51955,-5.42076 6.68072,-8.22531 4.25487,-4.41785 8.79614,-8.47934 13.63602,-12.25525 11.06156,-8.79583 22.51151,-17.10522 33.11255,-26.47745 7.5928,-6.72194 15.1713,-13.4646 22.9362,-19.98427 18.3067,8.77521 14.4436,2.78637 12.4121,14.56299 -0.9583,5.06014 -1.6373,10.17148 -2.996,15.14947 -2.063,9.01723 -3.5442,18.17117 -6.0039,27.0989 -3.3012,12.97913 -7.1576,25.82938 -11.8646,38.37266 0,0 -13.009,-7.20074 -13.009,-7.20074 z" />
  </g>
</svg>
